<svg width="306" height="52" viewBox="0 0 306 52" fill="none" xmlns="http://www.w3.org/2000/svg">
<path d="M133.775 42.4454V7.98533H137.371V42.4454H133.775ZM155.047 42.4454V11.136H143.093V7.98533H170.596V11.136H158.643V42.4454H155.047ZM172.151 30.6305V27.5784H184.882V30.6305H172.151ZM207.032 42.7408C207.032 42.7408 206.967 42.7408 206.838 42.7408C206.708 42.7408 206.579 42.7408 206.449 42.7408C206.352 42.7408 206.271 42.7408 206.206 42.7408C201.152 42.708 197.217 41.5429 194.398 39.2456C191.58 36.9482 190.171 33.6827 190.171 29.4491C190.171 25.281 191.58 22.0647 194.398 19.8002C197.249 17.5029 201.25 16.3378 206.4 16.305C206.433 16.305 206.498 16.305 206.595 16.305C206.724 16.305 206.838 16.305 206.935 16.305C207.032 16.305 207.097 16.305 207.129 16.305C212.312 16.3378 216.346 17.5029 219.229 19.8002C222.112 22.0647 223.553 25.281 223.553 29.4491C223.553 33.7155 222.096 36.9975 219.18 39.2948C216.297 41.5921 212.248 42.7408 207.032 42.7408ZM206.984 39.6886C209.867 39.6886 212.28 39.2948 214.224 38.5071C216.167 37.6867 217.641 36.5216 218.646 35.0119C219.65 33.5022 220.152 31.6479 220.152 29.4491C220.152 27.3158 219.65 25.5108 218.646 24.0339C217.641 22.5242 216.167 21.3755 214.224 20.5879C212.28 19.8002 209.867 19.4064 206.984 19.4064C206.951 19.4064 206.854 19.4064 206.692 19.4064C206.562 19.4064 206.481 19.4064 206.449 19.4064C203.631 19.4064 201.266 19.8166 199.355 20.6371C197.443 21.4248 196.002 22.557 195.03 24.0339C194.058 25.5108 193.572 27.3158 193.572 29.4491C193.572 31.6151 194.058 33.453 195.03 34.9627C196.034 36.4724 197.492 37.6374 199.403 38.4579C201.314 39.2456 203.663 39.6558 206.449 39.6886C206.514 39.6886 206.611 39.6886 206.741 39.6886C206.87 39.6886 206.951 39.6886 206.984 39.6886ZM205.137 51.9958V5.91772H208.49V51.9958H205.137ZM241.783 42.6916C239.127 42.6916 236.794 42.1337 234.786 41.0178C232.777 39.8691 231.206 38.3102 230.072 36.3411C228.938 34.3391 228.372 32.0582 228.372 29.4983C228.372 26.9384 228.906 24.6739 229.975 22.7047C231.077 20.7356 232.567 19.1931 234.446 18.0772C236.357 16.9285 238.495 16.3542 240.86 16.3542C243.257 16.3542 245.379 16.9121 247.225 18.028C249.104 19.111 250.578 20.6535 251.647 22.6555C252.716 24.6246 253.251 26.9056 253.251 29.4983C253.251 29.6624 253.234 29.8429 253.202 30.0398C253.202 30.2039 253.202 30.3844 253.202 30.5813H230.996V27.9722H251.356L249.995 29.006C249.995 27.1353 249.59 25.4779 248.78 24.0339C248.003 22.557 246.934 21.4084 245.573 20.5879C244.213 19.7674 242.641 19.3572 240.86 19.3572C239.11 19.3572 237.539 19.7674 236.146 20.5879C234.753 21.4084 233.668 22.557 232.891 24.0339C232.113 25.5108 231.724 27.2009 231.724 29.1045V29.646C231.724 31.6151 232.146 33.3545 232.988 34.8642C233.862 36.3411 235.061 37.5062 236.584 38.3595C238.139 39.1799 239.904 39.5902 241.88 39.5902C243.435 39.5902 244.877 39.3112 246.205 38.7533C247.565 38.1954 248.732 37.3421 249.703 36.1934L251.647 38.4579C250.513 39.8363 249.088 40.8865 247.371 41.6085C245.687 42.3306 243.824 42.6916 241.783 42.6916ZM271.578 42.6916C269.051 42.6916 266.784 42.1337 264.775 41.0178C262.799 39.8691 261.244 38.3102 260.11 36.3411C258.976 34.3391 258.41 32.0582 258.41 29.4983C258.41 26.9056 258.976 24.6246 260.11 22.6555C261.244 20.6863 262.799 19.1438 264.775 18.028C266.784 16.9121 269.051 16.3542 271.578 16.3542C273.749 16.3542 275.709 16.7809 277.458 17.6342C279.207 18.4875 280.584 19.7674 281.588 21.474L279.013 23.2462C278.138 21.9335 277.053 20.9653 275.757 20.3417C274.461 19.7182 273.052 19.4064 271.53 19.4064C269.715 19.4064 268.079 19.833 266.622 20.6863C265.164 21.5068 264.014 22.6719 263.172 24.1816C262.329 25.6913 261.908 27.4635 261.908 29.4983C261.908 31.5331 262.329 33.3053 263.172 34.815C264.014 36.3247 265.164 37.5062 266.622 38.3595C268.079 39.1799 269.715 39.5902 271.53 39.5902C273.052 39.5902 274.461 39.2784 275.757 38.6548C277.053 38.0313 278.138 37.0795 279.013 35.7996L281.588 37.5718C280.584 39.2456 279.207 40.5255 277.458 41.4116C275.709 42.2649 273.749 42.6916 271.578 42.6916ZM292.654 42.4454V18.7172L293.528 19.6525H282.984V16.6004H305.774V19.6525H295.229L296.104 18.7172V42.4454H292.654Z" fill="black"/>
<path d="M115.271 0.327637H8.09867C3.6259 0.327637 0 4.00104 0 8.53242V41.0781C0 45.6095 3.6259 49.2829 8.09867 49.2829H115.271C119.744 49.2829 123.37 45.6095 123.37 41.0781V8.53242C123.37 4.00104 119.744 0.327637 115.271 0.327637Z" fill="url(#paint0_linear_106_803)"/>
<path d="M20.3006 38.6163V11.814H43.695V38.6163H38.8574V14.8006L39.9912 16.0258H24.0044L25.1382 14.8006V38.6163H20.3006ZM51.1547 38.6163V11.814H62.0393C64.3825 11.814 66.3856 12.1969 68.0485 12.9627C69.7368 13.7285 71.0343 14.8261 71.9413 16.2556C72.8484 17.685 73.3019 19.3825 73.3019 21.348C73.3019 23.3136 72.8484 25.0109 71.9413 26.4404C71.0343 27.87 69.7368 28.9675 68.0485 29.7333C66.3856 30.4991 64.3825 30.882 62.0393 30.882H53.8759L56.0679 28.5463V38.6163H51.1547ZM56.0679 29.0824L53.8759 26.6702H61.8126C63.9795 26.6702 65.6046 26.2107 66.688 25.2918C67.7967 24.3474 68.3509 23.0327 68.3509 21.348C68.3509 19.6378 67.7967 18.3232 66.688 17.4042C65.6046 16.4853 63.9795 16.0258 61.8126 16.0258H53.8759L56.0679 13.5753V29.0824ZM90.602 38.9992C88.536 38.9992 86.6336 38.6546 84.8951 37.9654C83.1566 37.2762 81.6449 36.319 80.3599 35.0938C79.0749 33.8431 78.0798 32.3881 77.3742 30.7288C76.6688 29.0441 76.3159 27.2062 76.3159 25.2152C76.3159 23.2242 76.6688 21.3991 77.3742 19.7399C78.0798 18.0552 79.0749 16.6002 80.3599 15.3749C81.6449 14.1242 83.1566 13.1542 84.8951 12.465C86.6336 11.7758 88.5233 11.4312 90.5642 11.4312C92.6304 11.4312 94.5201 11.7758 96.2333 12.465C97.9718 13.1542 99.4836 14.1242 100.769 15.3749C102.054 16.6002 103.049 18.0552 103.754 19.7399C104.46 21.3991 104.812 23.2242 104.812 25.2152C104.812 27.2062 104.46 29.0441 103.754 30.7288C103.049 32.4135 102.054 33.8685 100.769 35.0938C99.4836 36.319 97.9718 37.2762 96.2333 37.9654C94.5201 38.6546 92.6429 38.9992 90.602 38.9992ZM90.5642 34.6343C91.8997 34.6343 93.1342 34.4046 94.268 33.9451C95.4018 33.4856 96.3845 32.8347 97.2159 31.9923C98.0474 31.1246 98.6899 30.129 99.1434 29.0058C99.6223 27.8571 99.8615 26.5936 99.8615 25.2152C99.8615 23.8368 99.6223 22.5861 99.1434 21.4629C98.6899 20.3142 98.0474 19.3187 97.2159 18.4763C96.3845 17.6085 95.4018 16.9448 94.268 16.4853C93.1342 16.0258 91.8997 15.7961 90.5642 15.7961C89.229 15.7961 87.9942 16.0258 86.8604 16.4853C85.752 16.9448 84.7693 17.6085 83.9125 18.4763C83.081 19.3187 82.4261 20.3142 81.9472 21.4629C81.4937 22.5861 81.2669 23.8368 81.2669 25.2152C81.2669 26.5682 81.4937 27.8188 81.9472 28.9675C82.4261 30.1162 83.081 31.1246 83.9125 31.9923C84.744 32.8347 85.7266 33.4856 86.8604 33.9451C87.9942 34.4046 89.229 34.6343 90.5642 34.6343Z" fill="white"/>
<defs>
<linearGradient id="paint0_linear_106_803" x1="61.6849" y1="0.327637" x2="61.6849" y2="49.2829" gradientUnits="userSpaceOnUse">
<stop stop-color="#00E3FC"/>
<stop offset="0.5" stop-color="#0098E1"/>
<stop offset="1" stop-color="#00EBD4"/>
</linearGradient>
</defs>
</svg>
