<svg width="100" height="100" viewBox="0 0 100 100" fill="none" xmlns="http://www.w3.org/2000/svg">
<path d="M28.2346 13.8245C30.8711 15.2292 32.1654 16.5484 34.2346 18.8245C34.2346 20.1445 34.2346 21.4645 34.2346 22.8245C32.4221 23.512 32.4221 23.512 30.2346 23.8245C29.8221 23.3501 29.4096 22.8758 28.9846 22.387C26.0932 19.8054 22.9982 20.6394 19.2346 20.8245C19.2346 23.7945 19.2346 26.7645 19.2346 29.8245C21.5446 30.4845 23.8546 31.1445 26.2346 31.8245C26.2346 32.4845 26.2346 33.1445 26.2346 33.8245C28.8746 33.8245 31.5146 33.8245 34.2346 33.8245C34.214 32.8551 34.1934 31.8858 34.1721 30.887C34.2346 27.8245 34.2346 27.8245 35.2346 26.8245C37.9312 26.7513 40.6016 26.7321 43.2971 26.762C44.4351 26.7688 44.4351 26.7688 45.596 26.7757C47.4756 26.7875 49.3551 26.8055 51.2346 26.8245C51.5028 26.0769 51.7709 25.3292 52.0471 24.5589C53.1918 21.9232 54.3446 20.2103 56.2346 18.0745C57.0081 17.1851 57.0081 17.1851 57.7971 16.2776C60.2581 13.79 61.4133 13.8128 65.0471 13.5745C68.9034 13.6374 71.1958 14.3066 74.2346 16.8245C77.4169 20.7749 77.6041 23.8369 77.2346 28.8245C76.9046 29.8145 76.5746 30.8045 76.2346 31.8245C77.0893 31.8129 77.9439 31.8013 78.8245 31.7894C79.9292 31.7803 81.0339 31.7713 82.1721 31.762C83.2743 31.7504 84.3764 31.7388 85.512 31.7269C88.2346 31.8245 88.2346 31.8245 89.2346 32.8245C89.3348 35.8132 89.3734 38.7736 89.3596 41.762C89.3635 42.5993 89.3674 43.4365 89.3714 44.2991C89.3701 45.1003 89.3688 45.9014 89.3675 46.7269C89.3663 47.4641 89.3652 48.2014 89.364 48.961C89.2346 50.8245 89.2346 50.8245 88.2346 52.8245C86.5846 52.8245 84.9346 52.8245 83.2346 52.8245C83.2346 66.3545 83.2346 79.8845 83.2346 93.8245C85.2146 93.8245 87.1946 93.8245 89.2346 93.8245C89.6168 95.4807 89.9486 97.1491 90.2346 98.8245C89.2346 99.8245 89.2346 99.8245 87.0643 99.9448C86.1073 99.9426 85.1502 99.9403 84.1641 99.938C83.083 99.938 82.002 99.9379 80.8882 99.9378C79.1242 99.9301 79.1242 99.9301 77.3245 99.9222C76.1273 99.9208 74.9301 99.9194 73.6967 99.9179C69.8552 99.9123 66.0137 99.8997 62.1721 99.887C59.5751 99.882 56.9781 99.8774 54.3811 99.8734C47.9989 99.8623 41.6168 99.8455 35.2346 99.8245C34.9046 98.8345 34.5746 97.8445 34.2346 96.8245C32.9146 96.8245 31.5946 96.8245 30.2346 96.8245C29.9046 97.8145 29.5746 98.8045 29.2346 99.8245C25.7555 99.8534 22.2764 99.8713 18.7971 99.887C17.3073 99.8996 17.3073 99.8996 15.7874 99.9124C14.8431 99.9156 13.8989 99.9189 12.926 99.9222C12.0515 99.9274 11.177 99.9327 10.2759 99.938C8.23464 99.8245 8.23464 99.8245 7.23464 98.8245C7.14168 97.3816 7.11718 95.9342 7.12112 94.4883C7.12119 93.5675 7.12127 92.6466 7.12135 91.6978C7.12651 90.6968 7.13167 89.6957 7.13699 88.6644C7.1384 87.6448 7.13982 86.6252 7.14127 85.5747C7.14689 82.3038 7.15945 79.0329 7.17214 75.762C7.17715 73.5504 7.18172 71.3388 7.18581 69.1273C7.19687 63.693 7.21362 58.2588 7.23464 52.8245C6.05902 52.8864 6.05902 52.8864 4.85964 52.9495C2.23464 52.8245 2.23464 52.8245 0.234642 50.8245C-0.00827841 48.961 -0.00827841 48.961 0.00417276 46.7269C0.00610635 45.9257 0.00803996 45.1246 0.0100321 44.2991C0.0222782 43.4619 0.0345243 42.6246 0.0471415 41.762C0.047786 40.9209 0.0484306 40.0798 0.0490946 39.2132C0.0944097 32.9648 0.0944097 32.9648 1.23464 31.8245C3.25059 31.5902 5.27312 31.4112 7.29714 31.262C8.95423 31.1363 8.95423 31.1363 10.6448 31.0081C11.4994 30.9475 12.3541 30.8869 13.2346 30.8245C12.9046 30.1645 12.5746 29.5045 12.2346 28.8245C11.8587 23.8434 12.0581 20.7678 15.2346 16.8245C19.1442 13.5852 23.2924 12.7841 28.2346 13.8245ZM60.1175 21.9417C59.5374 22.8518 58.9573 23.7619 58.3596 24.6995C57.4663 26.0569 57.4663 26.0569 56.555 27.4417C55.0731 29.6621 55.0731 29.6621 55.2346 31.8245C56.9843 31.8788 58.7344 31.9175 60.4846 31.9495C61.4592 31.9727 62.4337 31.9959 63.4378 32.0198C66.3082 31.8194 67.8969 31.4852 70.2346 29.8245C71.5405 25.2507 71.5405 25.2507 70.1721 20.887C66.3671 18.8004 63.2011 18.8581 60.1175 21.9417Z" fill="#4B525C"/>
<path d="M28.2346 13.8245C30.8711 15.2292 32.1654 16.5484 34.2346 18.8245C34.2346 20.1445 34.2346 21.4645 34.2346 22.8245C32.4221 23.512 32.4221 23.512 30.2346 23.8245C29.8221 23.3501 29.4096 22.8758 28.9846 22.387C26.0932 19.8054 22.9982 20.6394 19.2346 20.8245C19.2346 23.7945 19.2346 26.7645 19.2346 29.8245C21.5446 30.4845 23.8546 31.1445 26.2346 31.8245C26.2346 32.4845 26.2346 33.1445 26.2346 33.8245C28.8746 33.8245 31.5146 33.8245 34.2346 33.8245C34.2346 54.6145 34.2346 75.4045 34.2346 96.8245C32.9146 96.8245 31.5946 96.8245 30.2346 96.8245C29.9046 97.8145 29.5746 98.8045 29.2346 99.8245C25.7555 99.8534 22.2764 99.8713 18.7971 99.887C17.3073 99.8996 17.3073 99.8996 15.7874 99.9124C14.8431 99.9156 13.8989 99.9189 12.926 99.9222C12.0515 99.9274 11.177 99.9327 10.2759 99.938C8.23464 99.8245 8.23464 99.8245 7.23464 98.8245C7.14168 97.3816 7.11718 95.9342 7.12112 94.4883C7.12119 93.5675 7.12127 92.6466 7.12135 91.6978C7.12651 90.6968 7.13167 89.6957 7.13699 88.6644C7.1384 87.6448 7.13982 86.6252 7.14127 85.5747C7.14689 82.3038 7.15945 79.0329 7.17214 75.762C7.17715 73.5504 7.18172 71.3388 7.18581 69.1273C7.19687 63.693 7.21362 58.2588 7.23464 52.8245C6.05902 52.8864 6.05902 52.8864 4.85964 52.9495C2.23464 52.8245 2.23464 52.8245 0.234642 50.8245C-0.00827841 48.961 -0.00827841 48.961 0.00417276 46.7269C0.00610635 45.9257 0.00803996 45.1246 0.0100321 44.2991C0.0222782 43.4619 0.0345243 42.6246 0.0471415 41.762C0.047786 40.9209 0.0484306 40.0798 0.0490946 39.2132C0.0944097 32.9648 0.0944097 32.9648 1.23464 31.8245C3.25059 31.5902 5.27312 31.4112 7.29714 31.262C8.95423 31.1363 8.95423 31.1363 10.6448 31.0081C11.4994 30.9475 12.3541 30.8869 13.2346 30.8245C12.9046 30.1645 12.5746 29.5045 12.2346 28.8245C11.8587 23.8434 12.0581 20.7678 15.2346 16.8245C19.1442 13.5852 23.2924 12.7841 28.2346 13.8245Z" fill="#FEFEFE"/>
<path d="M55.2346 52.8245C62.4946 52.8245 69.7546 52.8245 77.2346 52.8245C77.2346 66.3545 77.2346 79.8845 77.2346 93.8245C69.9746 93.8245 62.7146 93.8245 55.2346 93.8245C55.2346 80.2945 55.2346 66.7645 55.2346 52.8245Z" fill="#FEFEFF"/>
<path d="M28.2346 13.8245C30.8711 15.2292 32.1654 16.5484 34.2346 18.8245C34.2346 20.1445 34.2346 21.4645 34.2346 22.8245C32.4221 23.512 32.4221 23.512 30.2346 23.8245C29.8221 23.3501 29.4096 22.8758 28.9846 22.387C26.0932 19.8054 22.9982 20.6394 19.2346 20.8245C19.2346 23.7945 19.2346 26.7645 19.2346 29.8245C21.5446 30.4845 23.8546 31.1445 26.2346 31.8245C25.9046 33.4745 25.5746 35.1245 25.2346 36.8245C18.6346 36.8245 12.0346 36.8245 5.23464 36.8245C5.23464 40.4545 5.23464 44.0845 5.23464 47.8245C13.1546 47.8245 21.0746 47.8245 29.2346 47.8245C29.2346 49.1445 29.2346 50.4645 29.2346 51.8245C23.6246 51.8245 18.0146 51.8245 12.2346 51.8245C12.2346 65.6845 12.2346 79.5445 12.2346 93.8245C17.5146 93.8245 22.7946 93.8245 28.2346 93.8245C28.8946 94.4845 29.5546 95.1445 30.2346 95.8245C29.8596 97.9495 29.8596 97.9495 29.2346 99.8245C25.7555 99.8534 22.2764 99.8713 18.7971 99.887C17.3073 99.8996 17.3073 99.8996 15.7874 99.9124C14.8431 99.9156 13.8989 99.9189 12.926 99.9222C12.0515 99.9274 11.177 99.9327 10.2759 99.938C8.23464 99.8245 8.23464 99.8245 7.23464 98.8245C7.14168 97.3816 7.11718 95.9342 7.12112 94.4883C7.12119 93.5675 7.12127 92.6466 7.12135 91.6978C7.12651 90.6968 7.13167 89.6957 7.13699 88.6644C7.1384 87.6448 7.13982 86.6252 7.14127 85.5747C7.14689 82.3038 7.15945 79.0329 7.17214 75.762C7.17715 73.5504 7.18172 71.3388 7.18581 69.1273C7.19687 63.693 7.21362 58.2588 7.23464 52.8245C6.05902 52.8864 6.05902 52.8864 4.85964 52.9495C2.23464 52.8245 2.23464 52.8245 0.234642 50.8245C-0.00827841 48.961 -0.00827841 48.961 0.00417276 46.7269C0.00610635 45.9257 0.00803996 45.1246 0.0100321 44.2991C0.0222782 43.4619 0.0345243 42.6246 0.0471415 41.762C0.047786 40.9209 0.0484306 40.0798 0.0490946 39.2132C0.0944097 32.9648 0.0944097 32.9648 1.23464 31.8245C3.25059 31.5902 5.27312 31.4112 7.29714 31.262C8.95423 31.1363 8.95423 31.1363 10.6448 31.0081C11.4994 30.9475 12.3541 30.8869 13.2346 30.8245C12.9046 30.1645 12.5746 29.5045 12.2346 28.8245C11.8587 23.8434 12.0581 20.7678 15.2346 16.8245C19.1442 13.5852 23.2924 12.7841 28.2346 13.8245Z" fill="#495059"/>
<path d="M39.2346 31.8245C42.8646 31.8245 46.4946 31.8245 50.2346 31.8245C50.2346 52.6145 50.2346 73.4045 50.2346 94.8245C46.6046 94.8245 42.9746 94.8245 39.2346 94.8245C39.2346 74.0345 39.2346 53.2445 39.2346 31.8245Z" fill="#4AA3CF"/>
<path d="M26.2346 33.8245C28.8746 33.8245 31.5146 33.8245 34.2346 33.8245C34.2346 41.7445 34.2346 49.6645 34.2346 57.8245C26.9746 57.8245 19.7146 57.8245 12.2346 57.8245C12.2346 55.8445 12.2346 53.8645 12.2346 51.8245C20.6496 51.3295 20.6496 51.3295 29.2346 50.8245C29.2346 50.1645 29.2346 49.5045 29.2346 48.8245C21.3146 48.4945 13.3946 48.1645 5.23462 47.8245C5.23462 44.1945 5.23462 40.5645 5.23462 36.8245C15.1346 36.3295 15.1346 36.3295 25.2346 35.8245C25.5646 35.1645 25.8946 34.5045 26.2346 33.8245Z" fill="#F8F8F8"/>
<path d="M55.2346 52.8245C62.4946 52.8245 69.7546 52.8245 77.2346 52.8245C77.2346 66.3545 77.2346 79.8845 77.2346 93.8245C74.2646 93.8245 71.2946 93.8245 68.2346 93.8245C68.2346 81.9445 68.2346 70.0645 68.2346 57.8245C63.9446 57.8245 59.6546 57.8245 55.2346 57.8245C55.2346 56.1745 55.2346 54.5245 55.2346 52.8245Z" fill="#B8E4FF"/>
<path d="M55.2346 36.8245C64.8046 36.8245 74.3746 36.8245 84.2346 36.8245C84.2346 40.4545 84.2346 44.0845 84.2346 47.8245C74.6646 47.8245 65.0946 47.8245 55.2346 47.8245C55.2346 44.1945 55.2346 40.5645 55.2346 36.8245Z" fill="white"/>
<path d="M30.2346 49.8245C31.5546 49.8245 32.8746 49.8245 34.2346 49.8245C34.2346 52.4645 34.2346 55.1045 34.2346 57.8245C26.9746 57.8245 19.7146 57.8245 12.2346 57.8245C12.2346 55.8445 12.2346 53.8645 12.2346 51.8245C14.058 51.7336 14.058 51.7336 15.9182 51.6409C17.5029 51.5565 19.0875 51.4718 20.6721 51.387C21.4746 51.3476 22.277 51.3083 23.1038 51.2678C26.987 51.419 26.987 51.419 30.2346 49.8245Z" fill="#B5DEF8"/>
<path d="M37.219 0.344079C40.2289 2.55482 40.5318 4.95394 41.4846 8.51205C41.8198 9.71216 42.1549 10.9123 42.5002 12.1488C43.2321 15.8122 43.3685 19.1 43.2346 22.8245C41.5846 22.4945 39.9346 22.1645 38.2346 21.8245C37.3946 19.0764 36.5624 16.3264 35.7346 13.5745C35.4961 12.7972 35.2577 12.0199 35.012 11.2191C34.7864 10.465 34.5608 9.71088 34.3284 8.93392C34.1189 8.24266 33.9094 7.5514 33.6936 6.8392C33.2346 4.82455 33.2346 4.82455 33.2346 0.824548C35.2346 -0.175452 35.2346 -0.175452 37.219 0.344079Z" fill="#444B54"/>
<path d="M74.2346 36.8245C77.5346 36.8245 80.8346 36.8245 84.2346 36.8245C84.2346 40.4545 84.2346 44.0845 84.2346 47.8245C74.6646 47.8245 65.0946 47.8245 55.2346 47.8245C55.2346 47.4945 55.2346 47.1645 55.2346 46.8245C61.5046 46.8245 67.7746 46.8245 74.2346 46.8245C74.2346 43.5245 74.2346 40.2245 74.2346 36.8245Z" fill="#B3D6EC"/>
<path d="M50.2346 7.82446C51.5546 8.15446 52.8746 8.48446 54.2346 8.82446C53.5938 18.9677 53.5938 18.9677 50.2346 22.8245C48.9146 22.8245 47.5946 22.8245 46.2346 22.8245C46.5997 17.16 47.2901 12.8174 50.2346 7.82446Z" fill="#424851"/>
<path d="M95.2346 93.8245C97.2971 94.262 97.2971 94.262 99.2346 94.8245C99.2346 96.1445 99.2346 97.4645 99.2346 98.8245C97.9146 99.1545 96.5946 99.4845 95.2346 99.8245C94.8524 98.1683 94.5207 96.4999 94.2346 94.8245C94.5646 94.4945 94.8946 94.1645 95.2346 93.8245Z" fill="#404851"/>
</svg>
